<mxfile host="app.diagrams.net" modified="2024-04-18T12:23:41.263Z" agent="Mozilla/5.0 (Windows NT 10.0; Win64; x64) AppleWebKit/537.36 (KHTML, like Gecko) Chrome/123.0.0.0 Safari/537.36 Edg/123.0.0.0" version="24.2.5" etag="YFE153iWzCJlCJQTSi54" type="github">
  <diagram name="PÃ¡gina-1" id="dCLu8TlQfl86kYItLlZj">
    <mxGraphModel>
      <root>
        <mxCell id="0" />
        <mxCell id="1" parent="0" />
      </root>
    </mxGraphModel>
  </diagram>
</mxfile>
